<?xml version="1.0" encoding="UTF-8" standalone="no"?>
<svg
   xmlns:dc="http://purl.org/dc/elements/1.1/"
   xmlns:cc="http://creativecommons.org/ns#"
   xmlns:rdf="http://www.w3.org/1999/02/22-rdf-syntax-ns#"
   xmlns:svg="http://www.w3.org/2000/svg"
   xmlns="http://www.w3.org/2000/svg"
   id="pebmybLogoSVG"
   version="1.1"
   width="1025.5387"
   height="377.68695">
  <metadata
     id="metadata204">
    <rdf:RDF>
      <cc:Work
         rdf:about="">
        <dc:format>image/svg+xml</dc:format>
        <dc:type
           rdf:resource="http://purl.org/dc/dcmitype/StillImage" />
        <dc:title></dc:title>
      </cc:Work>
    </rdf:RDF>
  </metadata>
  <desc
     id="desc126">pebmyn webinterface</desc>
  <defs
     id="defs153">
    <linearGradient
       x1="-108.35712"
       y1="-108.35883"
       x2="108.36055"
       y2="-108.35883"
       id="PEBMYN_TEXT"
       gradientTransform="scale(2.8895689,0.34607239)"
       gradientUnits="userSpaceOnUse">
      <stop
         offset="0%"
         stop-color="#4e779c"
         stop-opacity="0.811765"
         id="stop128" />
      <stop
         offset="100%"
         stop-color="#4e779c"
         stop-opacity="0.811765"
         id="stop130" />
    </linearGradient>
    <linearGradient
       x1="6.0041065"
       y1="47.095921"
       x2="99.536179"
       y2="47.095921"
       id="QUADER"
       gradientTransform="scale(0.9425216,1.0609836)"
       gradientUnits="userSpaceOnUse">
      <stop
         offset="0%"
         stop-color="#ffffff"
         id="stop133" />
      <stop
         offset="100%"
         stop-color="#ffffff"
         id="stop135" />
    </linearGradient>
    <linearGradient
       x1="14.424328"
       y1="43.305309"
       x2="101.03495"
       y2="43.305309"
       id="LOCK"
       gradientTransform="scale(0.86610623,1.1545928)"
       gradientUnits="userSpaceOnUse">
      <stop
         offset="0%"
         stop-color="#ffffff"
         id="stop138" />
      <stop
         offset="100%"
         stop-color="#ffffff"
         id="stop140" />
    </linearGradient>
    <linearGradient
       x1="-0.013"
       y1="88.384499"
       x2="176.756"
       y2="88.384499"
       id="SHAPE1"
       gradientUnits="userSpaceOnUse">
      <stop
         offset="0%"
         stop-color="#4e779c"
         stop-opacity="0.81"
         id="stop143" />
      <stop
         offset="100%"
         stop-color="#4e779c"
         stop-opacity="0.81"
         id="stop145" />
    </linearGradient>
    <linearGradient
       x1="-0.013"
       y1="88.384499"
       x2="176.756"
       y2="88.384499"
       id="SHAPE2"
       gradientUnits="userSpaceOnUse">
      <stop
         offset="0%"
         stop-color="#e4c79f"
         stop-opacity="0.84"
         id="stop148" />
      <stop
         offset="100%"
         stop-color="#e4c79f"
         stop-opacity="0.84"
         id="stop150" />
    </linearGradient>
  </defs>
  <g
     transform="matrix(1.843,0,0,1.843,699.7774,0)"
     id="g163">
    <svg
       width="186.769"
       height="186.769"
       viewBox="-5.013 -5 186.769 186.769"
       class="thumb"
       version="1.1"
       id="svg161">
      <desc
         id="desc155">Quadrat blue</desc>
      <g
         id="g159">
        <rect
           x="-0.013"
           y="0"
           width="176.769"
           height="176.769"
           fill="url(#SHAPE1)"
           stroke="none"
           id="rect157"
           style="fill:url(#SHAPE1)" />
      </g>
    </svg>
  </g>
  <g
     transform="matrix(1.843,0,0,1.843,525.3298,51.9017)"
     id="g173">
    <svg
       width="186.769"
       height="186.769"
       viewBox="-5.013 -5 186.769 186.769"
       class="thumb"
       version="1.1"
       id="svg171">
      <desc
         id="desc165">SHAPE 2</desc>
      <g
         id="g169">
        <rect
           x="-0.013"
           y="0"
           width="176.769"
           height="176.769"
           fill="url(#SHAPE2)"
           stroke="none"
           id="rect167"
           style="fill:url(#SHAPE2)" />
      </g>
    </svg>
  </g>
  <g
     transform="matrix(2.3506,0,0,2.3506,735.8091,99.5143)"
     id="g183">
    <svg
       width="98.155998"
       height="109.236"
       viewBox="0.659 -4.65 98.156 109.236"
       version="1.1"
       id="svg181">
      <desc
         id="desc175">Quader</desc>
      <g
         id="g179">
        <path
           fill="url(#QUADER)"
           d="m 93.786,22.714 c -0.003,-0.025 -0.008,-0.05 -0.012,-0.076 -0.018,-0.113 -0.042,-0.225 -0.073,-0.336 -0.005,-0.02 -0.009,-0.04 -0.015,-0.06 C 93.649,22.119 93.604,21.997 93.55,21.877 93.539,21.852 93.528,21.828 93.515,21.804 93.488,21.744 93.46,21.685 93.429,21.626 93.41,21.594 93.388,21.564 93.369,21.532 93.349,21.5 93.331,21.47 93.311,21.439 93.247,21.339 93.176,21.244 93.102,21.154 93.096,21.146 93.091,21.138 93.084,21.132 92.998,21.03 92.905,20.936 92.81,20.847 92.791,20.831 92.773,20.815 92.754,20.799 92.666,20.724 92.576,20.653 92.483,20.589 92.464,20.577 92.448,20.564 92.43,20.552 92.321,20.479 92.206,20.414 92.087,20.356 92.08,20.352 92.073,20.348 92.066,20.344 L 51.07,0.653 c -0.842,-0.404 -1.824,-0.404 -2.667,0 L 7.406,20.343 c -0.008,0.004 -0.015,0.009 -0.023,0.013 -0.116,0.058 -0.229,0.122 -0.338,0.193 -0.021,0.013 -0.041,0.028 -0.061,0.042 -0.09,0.062 -0.177,0.13 -0.261,0.203 -0.021,0.018 -0.042,0.036 -0.063,0.055 -0.095,0.087 -0.186,0.179 -0.271,0.279 -0.01,0.011 -0.018,0.024 -0.027,0.036 -0.07,0.085 -0.136,0.176 -0.197,0.27 -0.022,0.034 -0.043,0.068 -0.064,0.104 -0.018,0.03 -0.039,0.058 -0.056,0.088 -0.031,0.055 -0.056,0.112 -0.083,0.168 -0.014,0.029 -0.029,0.057 -0.042,0.085 -0.052,0.119 -0.096,0.238 -0.132,0.359 -0.006,0.023 -0.012,0.047 -0.018,0.07 -0.03,0.108 -0.053,0.216 -0.07,0.325 -0.005,0.028 -0.01,0.055 -0.013,0.083 -0.018,0.132 -0.028,0.265 -0.028,0.397 0,0.002 0,0.005 0,0.007 v 50.65 c 0,1.119 0.607,2.15 1.587,2.694 L 48.242,99.2 c 0.465,0.257 0.98,0.386 1.495,0.386 0.514,0 1.029,-0.129 1.494,-0.386 L 92.228,76.466 c 0.979,-0.544 1.587,-1.575 1.587,-2.694 v -50.65 c 0,-0.001 0,-0.003 0,-0.005 0,-0.135 -0.01,-0.269 -0.029,-0.403 z M 49.737,92.981 11.821,71.956 V 28.354 l 20.112,11.153 c 0.474,0.262 0.986,0.387 1.492,0.387 1.084,0 2.135,-0.573 2.698,-1.588 0.825,-1.488 0.288,-3.364 -1.2,-4.189 L 15.449,23.317 49.737,6.85 84.026,23.318 64.553,34.116 c -1.489,0.825 -2.028,2.701 -1.201,4.189 0.562,1.016 1.613,1.588 2.697,1.588 0.506,0 1.019,-0.125 1.491,-0.387 L 87.652,28.354 v 43.602 z"
           stroke="none"
           id="path177"
           style="fill:url(#QUADER)" />
      </g>
    </svg>
  </g>
  <g
     transform="matrix(1.298,0,0,1.298,794.3819,167.7659)"
     id="g193">
    <svg
       width="85.014"
       height="110"
       viewBox="7.493 -5 85.014 110"
       version="1.1"
       id="svg191">
      <desc
         id="desc185">Lock</desc>
      <g
         id="g189">
        <path
           d="M 56.426,0 C 39.137,0 25.346,14.421 25.346,31.326 H 37.87 c 0,-10.565 8.631,-18.792 19.016,-18.792 10.357,0 18.999,8.452 18.999,18.821 v 6.311 H 12.493 V 81.504 C 12.493,91.876 21.234,100 31.59,100 H 69.2 c 10.355,0 18.307,-8.124 18.307,-18.497 V 31.354 C 87.507,14.068 73.688,0 56.426,0 Z m 1.381,82.384 c 0.114,0.423 0.021,0.867 -0.242,1.22 -0.271,0.347 -0.681,0.549 -1.122,0.549 H 44.349 c -0.437,0 -0.848,-0.202 -1.117,-0.549 -0.269,-0.353 -0.357,-0.799 -0.245,-1.222 L 46.399,69.398 C 44.056,68.002 42.6,65.491 42.6,62.707 c 0,-4.308 3.496,-7.802 7.796,-7.802 4.296,0 7.796,3.494 7.796,7.802 0,2.784 -1.459,5.297 -3.799,6.692 z"
           fill="url(#LOCK)"
           stroke="none"
           id="path187"
           style="fill:url(#LOCK)" />
      </g>
    </svg>
  </g>
  <g
     transform="matrix(1.1979,0,0,1.1979,375.0689,150.846)"
     id="g199">
    <desc
       id="desc195">Text Font: Michroma</desc>
    <path
       d="m -313.10535,0 v -75 h 56.34 q 6.99,0 11.79,0.61 4.81,0.61 7.94,1.83 3.12,1.22 4.81,3.03 1.68,1.81 2.46,4.25 0.79,2.44 0.91,5.47 0.12,3.02 0.12,6.68 v 0 q 0,3.81 -0.17,7.04 -0.17,3.22 -1.12,5.83 -0.96,2.61 -3.03,4.59 -2.08,1.98 -5.91,3.3 -3.83,1.32 -9.72,2 -5.88,0.68 -14.47,0.68 v 0 h -40.58 V 0 Z m 9.37,-67.19 v 29.69 h 40.58 q 6.25,0 10.52,-0.22 4.27,-0.22 7.05,-0.81 2.79,-0.58 4.3,-1.66 1.51,-1.07 2.22,-2.83 0.71,-1.76 0.83,-4.22 0.13,-2.47 0.13,-5.89 v 0 q 0,-3.17 -0.13,-5.46 -0.12,-2.3 -0.83,-3.86 -0.71,-1.56 -2.22,-2.49 -1.51,-0.93 -4.3,-1.44 -2.78,-0.51 -7.05,-0.66 -4.27,-0.15 -10.52,-0.15 v 0 z M -141.23035,0 h -75 v -75 h 75 v 7.81 h -65.63 v 25 h 62.5 v 7.81 h -62.5 v 26.57 h 65.63 z m 68.699998,0 h -56.199998 v -75 h 62.539998 q 7.04,0 11.33,1.15 4.3,1.14 6.62,3.37 2.32,2.22 3.1,5.54 0.78,3.32 0.78,7.62 v 0 q 0,3.12 -0.54,5.51 -0.53,2.4 -1.41,4.15 -0.88,1.76 -2.01,2.96 -1.12,1.19 -2.29,1.98 v 0 q -2.73,1.85 -6.25,2.09 v 0 q 4.39,0.25 7.81,2.15 v 0 q 1.47,0.83 2.86,2.08 1.39,1.24 2.49,3.07 1.1,1.84 1.78,4.3 0.69,2.47 0.69,5.69 v 0 q 0,3.91 -0.37,7.15 -0.37,3.25 -1.49,5.84 -1.12,2.59 -3.22,4.54 -2.1,1.95 -5.59,3.25 -3.5,1.29 -8.55,1.93 -5.05,0.63 -12.08,0.63 z m -46.829998,-7.81 h 43.699998 q 5.47,0 9.47,-0.17 4.01,-0.17 6.79,-0.74 2.78,-0.56 4.49,-1.61 1.71,-1.05 2.66,-2.78 0.96,-1.73 1.3,-4.22 0.34,-2.49 0.34,-6.01 v 0 q 0,-2.73 -0.34,-4.76 -0.34,-2.03 -1.3,-3.42 -0.95,-1.39 -2.66,-2.24 -1.71,-0.86 -4.49,-1.35 -2.78,-0.49 -6.79,-0.66 -4,-0.17 -9.47,-0.17 v 0 h -43.699998 z m 0,-35.94 h 43.699998 q 4.79,0 8.25,-0.2 3.47,-0.19 5.91,-0.73 2.44,-0.53 3.96,-1.49 1.51,-0.95 2.36,-2.46 0.86,-1.52 1.15,-3.64 0.3,-2.12 0.3,-5.05 v 0 q 0,-3.13 -0.69,-5.08 -0.68,-1.96 -2.44,-3.01 -1.76,-1.05 -4.76,-1.41 -3,-0.37 -7.69,-0.37 v 0 H -119.36035 Z M 28.974648,0 l -45.21,-68.75 V 0 h -9.37 v -75 h 15.6200004 l 43.6999996,65.62 43.7,-65.62 h 14.94 V 0 h -9.37 V -67.72 L 38.454648,0 Z M 150.1734,-31.25 107.9834,-75 h 12.5 l 34.38,36.72 34.37,-36.72 h 12.5 l -42.19,43.75 V 0 h -9.37 z m 77.73187,-35.94 V 0 h -9.37 v -75 h 16.45 l 68.75,65.62 V -75 h 9.38 V 0 h -12.5 z"
       data-textpath="PEBMYN"
       transform="translate(0,106.64063)"
       fill="url(#PEBMYN_TEXT)"
       id="path197"
       style="fill:url(#PEBMYN_TEXT)" />
  </g>
</svg>
