<svg id="pebmybLogoSVG" xmlns="http://www.w3.org/2000/svg" xmlns:xlink="http://www.w3.org/1999/xlink">
    <desc>pebmyn webinterface</desc>
    <defs>
        <linearGradient x1="0" y1="0.5" x2="1" y2="0.5" id="PEBMYN_TEXT">
            <stop offset="0%" stop-color="#4e779c" stop-opacity="0.811765"></stop>
            <stop offset="100%" stop-color="#4e779c" stop-opacity="0.811765"></stop>
        </linearGradient>
        <linearGradient x1="0" y1="0.5" x2="1" y2="0.5" id="QUADER">
            <stop offset="0%" stop-color="#ffffff"></stop>
            <stop offset="100%" stop-color="#ffffff"></stop>
        </linearGradient>
        <linearGradient x1="0" y1="0.5" x2="1" y2="0.5" id="LOCK">
            <stop offset="0%" stop-color="#ffffff"></stop>
            <stop offset="100%" stop-color="#ffffff"></stop>
        </linearGradient>
        <linearGradient x1="0" y1="0.5" x2="1" y2="0.5" id="SHAPE1">
            <stop offset="0%" stop-color="#4e779c" stop-opacity="0.81"></stop>
            <stop offset="100%" stop-color="#4e779c" stop-opacity="0.81"></stop>
        </linearGradient>
        <linearGradient x1="0" y1="0.5" x2="1" y2="0.5" id="SHAPE2">
            <stop offset="0%" stop-color="#e4c79f" stop-opacity="0.84"></stop>
            <stop offset="100%" stop-color="#e4c79f" stop-opacity="0.84"></stop>
        </linearGradient>
    </defs>
    
   
    <g transform="matrix(1.843,0,0,1.843,714.7085,16.154)" style="cursor: move; opacity: 1;" class="svg-clip svg-visible">
        <svg width="186.769" height="186.769" viewBox="-5.013000000000005,-5,186.769,186.769" class="thumb">
            <desc>Quadrat blue</desc>
            <g><rect x="-0.013" y="0" width="176.769" height="176.769" fill="url('#SHAPE1')" stroke="none" style=""></rect></g>
        </svg>
    </g>
    
    <g transform="matrix(1.843,0,0,1.843,540.2609,68.0557)" style="cursor: move; opacity: 1;" class="svg-clip svg-visible">
        <svg width="186.769" height="186.769" viewBox="-5.013000000000005,-5,186.769,186.769" class="thumb">
            <desc>SHAPE 2</desc>
            <g><rect x="-0.013" y="0" width="176.769" height="176.769" fill="url('#SHAPE2')" stroke="none" style=""></rect></g>
        </svg>
    </g>

    <g transform="matrix(2.3506,0,0,2.3506,750.7402,115.6683)" style="cursor: move; opacity: 1;" class="svg-clip svg-visible">
        <svg width="98.15599999999999" height="109.236" viewBox="0.6590000000000007,-4.65,98.15599999999999,109.236">
            <desc>Quader</desc>
            <g>
                <path fill="url('#QUADER')" d="M93.786,22.714c-0.003-0.025-0.008-0.05-0.012-0.076c-0.018-0.113-0.042-0.225-0.073-0.336   c-0.005-0.02-0.009-0.04-0.015-0.06c-0.037-0.123-0.082-0.245-0.136-0.365c-0.011-0.025-0.022-0.049-0.035-0.073   c-0.027-0.06-0.055-0.119-0.086-0.178c-0.019-0.032-0.041-0.062-0.06-0.094c-0.02-0.032-0.038-0.062-0.058-0.093   c-0.064-0.1-0.135-0.195-0.209-0.285c-0.006-0.008-0.011-0.016-0.018-0.022c-0.086-0.102-0.179-0.196-0.274-0.285   c-0.019-0.016-0.037-0.032-0.056-0.048c-0.088-0.075-0.178-0.146-0.271-0.21c-0.019-0.012-0.035-0.025-0.053-0.037   c-0.109-0.073-0.224-0.138-0.343-0.196c-0.007-0.004-0.014-0.008-0.021-0.012L51.07,0.653c-0.842-0.404-1.824-0.404-2.667,0   L7.406,20.343c-0.008,0.004-0.015,0.009-0.023,0.013c-0.116,0.058-0.229,0.122-0.338,0.193c-0.021,0.013-0.041,0.028-0.061,0.042   c-0.09,0.062-0.177,0.13-0.261,0.203c-0.021,0.018-0.042,0.036-0.063,0.055c-0.095,0.087-0.186,0.179-0.271,0.279   c-0.01,0.011-0.018,0.024-0.027,0.036c-0.07,0.085-0.136,0.176-0.197,0.27c-0.022,0.034-0.043,0.068-0.064,0.104   c-0.018,0.03-0.039,0.058-0.056,0.088c-0.031,0.055-0.056,0.112-0.083,0.168c-0.014,0.029-0.029,0.057-0.042,0.085   c-0.052,0.119-0.096,0.238-0.132,0.359c-0.006,0.023-0.012,0.047-0.018,0.07c-0.03,0.108-0.053,0.216-0.07,0.325   c-0.005,0.028-0.01,0.055-0.013,0.083c-0.018,0.132-0.028,0.265-0.028,0.397c0,0.002,0,0.005,0,0.007v50.65   c0,1.119,0.607,2.15,1.587,2.694L48.242,99.2c0.465,0.257,0.98,0.386,1.495,0.386c0.514,0,1.029-0.129,1.494-0.386l40.997-22.734   c0.979-0.544,1.587-1.575,1.587-2.694v-50.65c0-0.001,0-0.003,0-0.005C93.815,22.982,93.805,22.848,93.786,22.714z M49.737,92.981   L11.821,71.956V28.354l20.112,11.153c0.474,0.262,0.986,0.387,1.492,0.387c1.084,0,2.135-0.573,2.698-1.588   c0.825-1.488,0.288-3.364-1.2-4.189L15.449,23.317L49.737,6.85l34.289,16.468L64.553,34.116c-1.489,0.825-2.028,2.701-1.201,4.189   c0.562,1.016,1.613,1.588,2.697,1.588c0.506,0,1.019-0.125,1.491-0.387l20.112-11.152v43.602L49.737,92.981z" stroke="none" style=""></path>
            </g>
        </svg>
    </g>
    <g transform="matrix(1.298,0,0,1.298,809.313,183.9199)" style="cursor: move; opacity: 1;">
        <svg width="85.01400000000001" height="110" viewBox="7.493,-5,85.01400000000001,110">
            <desc>Lock</desc>
            <g>
                <path d="M56.426,0c-17.289,0-31.08,14.421-31.08,31.326H37.87c0-10.565,8.631-18.792,19.016-18.792  c10.357,0,18.999,8.452,18.999,18.821v6.311H12.493v43.838C12.493,91.876,21.234,100,31.59,100H69.2  c10.355,0,18.307-8.124,18.307-18.497V31.354C87.507,14.068,73.688,0,56.426,0z M57.807,82.384c0.114,0.423,0.021,0.867-0.242,1.22  c-0.271,0.347-0.681,0.549-1.122,0.549H44.349c-0.437,0-0.848-0.202-1.117-0.549c-0.269-0.353-0.357-0.799-0.245-1.222l3.412-12.984  c-2.343-1.396-3.799-3.907-3.799-6.691c0-4.308,3.496-7.802,7.796-7.802c4.296,0,7.796,3.494,7.796,7.802  c0,2.784-1.459,5.297-3.799,6.692L57.807,82.384z" fill="url('#LOCK')" stroke="none" style=""></path>
            </g>
        </svg>
    </g>
    <g transform="matrix(1.1979,0,0,1.1979,390,167)">
        <desc>Text Font: Michroma</desc>
        <path d="M-313.1053515625 0L-313.1053515625-75L-256.7653515625-75Q-249.77535156250002-75 -244.9753515625-74.39Q-240.1653515625-73.78 -237.0353515625-72.56Q-233.9153515625-71.34 -232.2253515625-69.53Q-230.5453515625-67.72 -229.7653515625-65.28Q-228.9753515625-62.84 -228.8553515625-59.81Q-228.7353515625-56.79 -228.7353515625-53.13L-228.7353515625-53.13Q-228.7353515625-49.32 -228.90535156250002-46.09Q-229.0753515625-42.87 -230.02535156250002-40.26Q-230.9853515625-37.65 -233.0553515625-35.67Q-235.1353515625-33.69 -238.96535156250002-32.37Q-242.7953515625-31.05 -248.6853515625-30.37Q-254.56535156249998-29.69 -263.1553515625-29.69L-263.1553515625-29.69L-303.7353515625-29.69L-303.7353515625 0L-313.1053515625 0ZM-303.7353515625-67.19L-303.7353515625-37.5L-263.1553515625-37.5Q-256.9053515625-37.5 -252.6353515625-37.72Q-248.3653515625-37.94 -245.5853515625-38.53Q-242.7953515625-39.11 -241.2853515625-40.19Q-239.77535156250002-41.26 -239.06535156249998-43.02Q-238.3553515625-44.78 -238.2353515625-47.24Q-238.1053515625-49.71 -238.1053515625-53.13L-238.1053515625-53.13Q-238.1053515625-56.3 -238.2353515625-58.59Q-238.3553515625-60.89 -239.06535156249998-62.45Q-239.77535156250002-64.01 -241.2853515625-64.94Q-242.7953515625-65.87 -245.5853515625-66.38Q-248.3653515625-66.89 -252.6353515625-67.04Q-256.9053515625-67.19 -263.1553515625-67.19L-263.1553515625-67.19L-303.7353515625-67.19ZM-141.23035156249998 0L-216.23035156249998 0L-216.23035156249998-75L-141.23035156249998-75L-141.23035156249998-67.19L-206.86035156249997-67.19L-206.86035156249997-42.19L-144.36035156249997-42.19L-144.36035156249997-34.38L-206.86035156249997-34.38L-206.86035156249997-7.81L-141.23035156249998-7.81L-141.23035156249998 0ZM-72.5303515625 0L-128.7303515625 0L-128.7303515625-75L-66.1903515625-75Q-59.150351562500006-75 -54.8603515625-73.85Q-50.5603515625-72.71 -48.240351562499995-70.48Q-45.9203515625-68.26 -45.1403515625-64.94Q-44.3603515625-61.62 -44.3603515625-57.32L-44.3603515625-57.32Q-44.3603515625-54.2 -44.900351562500006-51.81Q-45.43035156249999-49.41 -46.3103515625-47.66Q-47.1903515625-45.9 -48.320351562499994-44.7Q-49.4403515625-43.51 -50.6103515625-42.72L-50.6103515625-42.72Q-53.340351562500004-40.87 -56.8603515625-40.63L-56.8603515625-40.63Q-52.4703515625-40.38 -49.0503515625-38.48L-49.0503515625-38.48Q-47.5803515625-37.65 -46.1903515625-36.4Q-44.8003515625-35.16 -43.7003515625-33.33Q-42.600351562499995-31.49 -41.9203515625-29.03Q-41.230351562500005-26.56 -41.230351562500005-23.34L-41.230351562500005-23.34Q-41.230351562500005-19.43 -41.600351562499995-16.19Q-41.9703515625-12.94 -43.090351562500004-10.35Q-44.210351562499994-7.76 -46.3103515625-5.81Q-48.4103515625-3.86 -51.900351562500006-2.56Q-55.400351562500006-1.27 -60.4503515625-0.63Q-65.5003515625 0 -72.5303515625 0L-72.5303515625 0ZM-119.3603515625-7.81L-75.6603515625-7.81Q-70.1903515625-7.81 -66.1903515625-7.98Q-62.18035156249999-8.15 -59.400351562500006-8.72Q-56.620351562500005-9.28 -54.9103515625-10.33Q-53.2003515625-11.38 -52.2503515625-13.11Q-51.29035156250001-14.84 -50.9503515625-17.33Q-50.6103515625-19.82 -50.6103515625-23.34L-50.6103515625-23.34Q-50.6103515625-26.07 -50.9503515625-28.1Q-51.29035156250001-30.13 -52.2503515625-31.52Q-53.2003515625-32.91 -54.9103515625-33.76Q-56.620351562500005-34.62 -59.400351562500006-35.11Q-62.18035156249999-35.6 -66.1903515625-35.77Q-70.1903515625-35.94 -75.6603515625-35.94L-75.6603515625-35.94L-119.3603515625-35.94L-119.3603515625-7.81ZM-119.3603515625-43.75L-75.6603515625-43.75Q-70.8703515625-43.75 -67.4103515625-43.95Q-63.9403515625-44.14 -61.5003515625-44.68Q-59.0603515625-45.21 -57.54035156250001-46.17Q-56.0303515625-47.12 -55.18035156249999-48.63Q-54.320351562499994-50.15 -54.0303515625-52.27Q-53.730351562500005-54.39 -53.730351562500005-57.32L-53.730351562500005-57.32Q-53.730351562500005-60.45 -54.4203515625-62.4Q-55.100351562499995-64.36 -56.8603515625-65.41Q-58.620351562500005-66.46 -61.620351562500005-66.82Q-64.6203515625-67.19 -69.3103515625-67.19L-69.3103515625-67.19L-119.3603515625-67.19L-119.3603515625-43.75ZM 28.974648437499994 0L-16.235351562500007-68.75L-16.235351562500007 0L-25.605351562500005 0L-25.605351562500005-75L-9.985351562500007-75L 33.714648437499996-9.38L 77.4146484375-75L 92.3546484375-75L 92.3546484375 0L 82.9846484375 0L 82.9846484375-67.72L 38.45464843749999 0L 28.974648437499994 0ZM 150.1733984375-31.25L 107.9833984375-75L 120.4833984375-75L 154.8633984375-38.28L 189.2333984375-75L 201.7333984375-75L 159.5433984375-31.25L 159.5433984375 0L 150.1733984375 0L 150.1733984375-31.25ZM 227.9052734375-67.19L 227.9052734375 0L 218.5352734375 0L 218.5352734375-75L 234.98527343749998-75L 303.7352734375-9.38L 303.7352734375-75L 313.1152734375-75L 313.1152734375 0L 300.6152734375 0L 227.9052734375-67.19Z" data-textpath="PEBMYN" transform="translate(0,106.640625)" fill="url('#PEBMYN_TEXT')"></path>
    </g>
</svg>
